<mxfile host="app.diagrams.net" modified="2024-04-07T02:19:42.222Z" agent="Mozilla/5.0 (Windows NT 10.0; Win64; x64) AppleWebKit/537.36 (KHTML, like Gecko) Chrome/123.0.0.0 Safari/537.36" etag="EHcPZKAV95TOwG3XSUEM" version="24.2.2" type="device">
  <diagram name="第 1 页" id="77W2IhedNKFdOpC8OIvS">
    <mxGraphModel dx="1221" dy="725" grid="1" gridSize="10" guides="1" tooltips="1" connect="1" arrows="1" fold="1" page="1" pageScale="1" pageWidth="727" pageHeight="610" math="0" shadow="0">
      <root>
        <mxCell id="0" />
        <mxCell id="1" parent="0" />
        <mxCell id="a9we4a085A3KK1icnXQR-11" style="edgeStyle=orthogonalEdgeStyle;rounded=0;orthogonalLoop=1;jettySize=auto;html=1;entryX=0;entryY=0.5;entryDx=0;entryDy=0;" parent="1" target="a9we4a085A3KK1icnXQR-3" edge="1">
          <mxGeometry relative="1" as="geometry">
            <mxPoint x="280" y="150" as="sourcePoint" />
          </mxGeometry>
        </mxCell>
        <mxCell id="a9we4a085A3KK1icnXQR-8" style="rounded=0;orthogonalLoop=1;jettySize=auto;html=1;entryX=0;entryY=0.5;entryDx=0;entryDy=0;exitX=1;exitY=0.5;exitDx=0;exitDy=0;" parent="1" source="a9we4a085A3KK1icnXQR-3" target="a9we4a085A3KK1icnXQR-5" edge="1">
          <mxGeometry relative="1" as="geometry" />
        </mxCell>
        <mxCell id="a9we4a085A3KK1icnXQR-9" style="edgeStyle=orthogonalEdgeStyle;rounded=0;orthogonalLoop=1;jettySize=auto;html=1;entryX=0;entryY=0.5;entryDx=0;entryDy=0;" parent="1" source="a9we4a085A3KK1icnXQR-3" target="a9we4a085A3KK1icnXQR-6" edge="1">
          <mxGeometry relative="1" as="geometry" />
        </mxCell>
        <mxCell id="a9we4a085A3KK1icnXQR-10" style="rounded=0;orthogonalLoop=1;jettySize=auto;html=1;entryX=0;entryY=0.5;entryDx=0;entryDy=0;exitX=1;exitY=0.5;exitDx=0;exitDy=0;" parent="1" source="a9we4a085A3KK1icnXQR-3" target="a9we4a085A3KK1icnXQR-7" edge="1">
          <mxGeometry relative="1" as="geometry" />
        </mxCell>
        <mxCell id="a9we4a085A3KK1icnXQR-3" value="&lt;div&gt;&lt;br&gt;&lt;/div&gt;&lt;div&gt;&lt;br&gt;&lt;/div&gt;&lt;div&gt;&lt;br&gt;&lt;/div&gt;ANTLR&amp;nbsp;&lt;span style=&quot;background-color: initial;&quot;&gt;解析器&lt;/span&gt;" style="rounded=1;whiteSpace=wrap;html=1;strokeWidth=2;" parent="1" vertex="1">
          <mxGeometry x="320" y="110" width="120" height="80" as="geometry" />
        </mxCell>
        <mxCell id="a9we4a085A3KK1icnXQR-4" value="" style="shape=image;verticalLabelPosition=bottom;labelBackgroundColor=default;verticalAlign=top;aspect=fixed;imageAspect=0;image=data:image/png,iVBORw0KGgoAAAANSUhEUgAAAMgAAADICAYAAACtWK6eAAAAAXNSR0IArs4c6QAAD/lJREFUeF7tnV9227YSh0HJLznHWUPdRTTtW52k+0i8ksQribOPxlHecpNFXHUNzTn3xRJuSIq2LIsiOPhhMMCMXpoegxQwM9/8A0g1zj4mAZPAqAQak41JwCQwLgEDxKzDJHBCAgaImYdJwAAxGzAJ0CRgEYQmN7tKiQQMECWKtmXSJGCA0ORmVymRgAGiRNG2TJoEDBCa3OwqJRIwQJQo2pZJk4ABQpObXaVEAgYIk6L/d/nHRftVd2fuotluLrxrfjn86qZpujHDx3u/bv/dOP9P+1+/WHb/f3bn1s9WX7t/2yetBAwQsHxbEO4W2zedYTf+sr99s/sv9Mt2gDSr7q5++6UF6PnfX/v/tw9EAgZIhBg7GM7chdtu/+xhSAICZYbrn3NZGTQU0T2+xgCZIcPH0cG9n3Fp7qEGDFEDBsiE4AYohEUIorrvL1t7727cYvHFUrLTojRAjsjnAYq2aPZvY61R+PUdLGfbxUcr/J9qygDZk8m/f/1x2Xj/RgEUI8z6lfPu4/nt9xvhULNNTz0gD9GiqJoitYFYVNlJWC0gBkYQY11xv9w011rTL3WAGBhBYBwO6kDxTfNRW1GvBhADgwTGkYv8arlZXmmJKNUDYmCgwHh0n65GeX777TrJ3QXdtGpA/n314l3TWPGd0N6qB6VKQNqosVluPgg6+pHQRkXceu2bxVWN9Ul1gFjUyAeM9+59bRuO1QBiUSMfGAffXFU0qQIQixpi4BgmUk1tUjQgfdTYfnbOPXrQSJy56J3QerlZvCy5JVwsIP25qQ4O+8iWQNHRpEhAfrz67a1rmg+y7cJmty+BtoAvcd+kOEB+vP79g97TtsVDtz7/9O3XklZRDCDWpSrJrE7Otai6pAhArBivBo77Llcpxbt4QKwYrw6Oh1ZwAbvvogExOKqFo5j9ErGAGBzVw1EEJCIBUQRHt0fQvjlxeOnb/hsYBb5vKxW1YvdKxAGiBI5ZBtE3Kfy7ytvbIs9wiQJk1636byo3JeO+fnX+6ftLylwUyEccJGIAUaB857y/in2ljoJTBKL2SUQAomETEHnUQsHpZTGQZAdEAxzO0dOqY6mYDpk5EcdSsgPy4/Vvn2t/NHa5WfyKPvKt43RBc3P+6T9XlHoNdU1WQBSkCpC6Y0zZGjp+yNSUAk02QDQot1XI+advyWSsJdXK+UKIZMqbovXH6xdtO7fyJwHTpwgKulqtKWUr2rMAoqHuaLWaovY4dDw6apF21dhGx5QDH/7ODogSj9f+LiFbgalFpjnqEVZAtNQdnb9rFi+5XqSmYpO1d+nsO+2sgGhJrXKkA4oeRWbdH2EDRJECWaPHkCsriiKOM9ViAURTatWmAbleTKAnQvN1tVgAUaS4pBuDU50XXY6Ip6uVHBAtHZbBeFNuDE4B0v5dkzPiaISkB0TFhmBvupy5sebjJ3trT57OJgXEokeIz8eOUXL8ZE9oafeb0gLy+oXHql/y3dIqas7KlTmmpFEkGSCa2rpcx0pCIdHU8u1lks45JQHEFBRqyunGKXNQyaJIEkA0dVK4j5WEImVOKlRSp8fBAdGnGGw/vpUf6ulDZY4qSRSBA6IstEOPlfTFtXtDfS3QoS/U56zwtUgCQDR1rrDHSoaHyJAbYBZF4lItKCDK2ovQYyWPZYfzhLqOn+AfM8AComjXvPVLyGMlPx7vGUHzaV1RBFsTwgDRFj2Qx0qO1m2AtzAOyYU63QAfVsMBouy3A1HPm58opGFRRM9z64NLwKWoQEA0Fec4BZzq+kGLdV2/DAxzLhBAtIVwVPToj6efciw4ELW1fFHOBQOIgteHPjQLcUYb4Fig74PStUeFKdZBgOhJr1CeaRc9Jl+eh2wGKIsikDQrGpAALxi3UyPqaoxX6uAIrwkgir7vaClqpiCcWTwgmtIrZOt1hqEiFD0AoiuKxKfDAEDUpFdgTz5HbrjI1ad29f/kxM4hROssCpAZaYKoRIk0GWD0oPzsAzKKaDp+Eiu3OEBmpAkkoxR0EfhYyWRx/nTp8enC/j21RJHYJkckIBp+wgD7SGdE1I1OF/YB0RNF4tLTWEBUvJQBuzEYkf8D0zxFbz+JcixkQCI8oaDEKWQquNQG4LWjlH24Wi06jKlD6IAoqT+w0eP3D875tyFYjo2JUbbaJw4jIm8EIBrqD1z0mD53FYpNXE59+C2UjlroTOWMo+sxBpDq6w+ktwYaIvRHZJRsHJJTUxIggFxajnMZnQnWU2N/tJTuEY8tV0HLlxcQFcVdRN7KUAyTFX4MEA1RhJoNkCKIhmPT2I3BiNbuaLXur85vv9+gQnHtUYS6YWiAHLMwYPRImI5Co0jCeaIYjrwPLWUmAlJ3BwsbPeJbu3wt380H55rLSEsUerkBAlIMugCec2p37hJoSh/7lsprS1LEpUaQalu8yI1BYGt3zKat5RvuU3gAqTtXhUcPwqndcI33I7FzZoB67gJh4ymp8+wIUnMYprYCj+4thD9SG2sAJM849qU1t3wp2YEBcm8pWE+M3RicYAjYdWu/qdY2PsUBGiA726MIT1CxC40itabRFB3PBqTOHBXcDcrwzDdF+afiUo0bh5TNQgOktRJgipLP+4Ih56uhYmuw4OtZAKkxP6V0N0bTqwzRYzcXa/lOojK/zpwdQeoDZL7Q5HaAcGupsVi3CDLpQZ4OoLT+xqNHumMlgUuDvsu3tpavARJoRQ/D0B435bGS0MWh15TgJHLoUsDjDJC5AkUW569evGsa937uFBKMh0aRfE0HvGQMkJkyxRbnkk4446JITWmWATILEJwRCTx+g40icqLjLA0fDmYBpJaNQuTGGuuxkmATwTmAWqKIARJsPLhNNYHRY5AC9PhJDTvrLIAINohgPJA755INh2IQY0KsolgnNGVmbxTWIChUcV6ALGBRpIp3+Rog00EE6VVLOFUArbUKP59F2RSeHUFKL9goQhrfOZewMTjlFHD1lkbdKwME19kpIXoMhxiXm8XLZ6uv6ymUQv5e0LqfLIeSWs8GpD/EVoLnfKpuaLpRkAyQaWXBUYRUjxEBKfF8Di7VKLCTRzKO8dSyRP3TsgciINlPrYZkA4/GgKMHw9tKZi/x5AXI9RfQvTsiC0ZACtxNh3nQAqPHzlhwEbRPs8uKItQ0kxRBivMghP53fHrRwF4sjYgl3vv189tv14h7tffQYgMkQEor1Cjdi2OGNNMooI/AogwbdZ/SNg6p7X0SILtOVhl5eJbocW+Ga+/dzdl28RHVZkUZOOI+JaWbVCcZAUgZOShVMIcGFBk1O1CQKQ7CwGPvsZPJZ+fcRey90l5PK9DbOZEBKaNQpwvmUGGgDbK18/4a+cM3aQ1r+u5FRJGILIIOyF9/XDZ+23oPsR9q3nlsQeDNUegDTTkVEBlZWaYeYwdkQOQLBhg90hzSq6Y+kR5FYtJsMiDSe+ExXuNpepX0efPi6xPZzjLOUUYBIrcOiRPKPiCM3rHo+gRUo8FTLuoG4TCRKECkeg7ksYoMO8ZF1ie12kIUIDLTLNyRioxKLzLtyuBMJiNOTP0R1eYdZiYttGKjR/ZDmUWBktGhjIASn2pHR5CZxy8miY8bgIseu9MCUn6stJj6RFIUQTjLaEBEeY2IDaEnnas0rd04/p1fLTfLK8nHViQ5zNj0CpJiSapDEAJ5SB3FHqURn3bJiCLx6RUMEBFeAxg9RKxnOtaIBYWxNT4qJdQ+WHSKJcXjYqNH9uJ8Go+HEeLqEwFpN+wBORwgWXN2TDh9gL3Il1KIev4ka3cTmE3AAMnpNVDhtAVE7umA0KDS3Cw3zXXuQj5nmoq0Bxgg+Yp1ePQo40Gw07yIqE/yFOtYe4ACksVrAMOphOIyNE4EjssKSg55IvY+9mULBSRHFEGG0zweL9DU44ZlKeT5027sRjGszbuvO26vgepeZYl+cUZPuZq9kAc/aHZyzejokQQQ5rddwNp5WbsuFFOnX7N2rllxFfJ8gOCjRxJAuk4Q4+O4qAjCp0i6ZYOvZKlPuOSaInokA4SzFkEIhjstBBt67O2SgcIn1zTRIykgfFEkvq3H5eViLTnx9fBCnqvpgXCSY7KFd7EeFew872+NegJPUe0RyleUPIcv4XOQ6aJH0gjCXIuQinU+JYbapphxUW9c4WzvpoweyQHhrEWcm+dJDI4gGGfXJ7xvW4xPr6ekkDTFar+c05s45yb7/O187hbbN03j3k8Jx/5+L4EgUJjPsZGyhrk6TQ5IF0X4T/p2CnWLxZezO7e+O3MXzXZz4V3zi4Ex10Qeje/2UJzffvGLZfebh7nkmjq1GlbNAghvqhVlAHZxERKYl07HLIkNEOZUK0Ymdq1wCSDP300tlQ2QTKnW1Prt76VJAHh6O2TprIBYqhWiEhszLgG+1Iq9Bhm+0FItA4AqAc7UKhsglmpRzUP3dVxdq0Mps6dYwwSYe+a6ravw1ce+oT1m+dkAYX5uJEZGdm1WCfDXHfvLzQZIOwneYwlZtWxfTpMAy275qallBWQPkvZNIvYxCTySQK66Q0wEGSaS4SiKmaJwCUiAoxVR9ghiRbtwS80wPSlwiAKknYx1tjJYo7CvlASHOEAMEmHWyj0d5mMkIcsTk2LtT9YiSYjqKhsjEA6REcRqksoMP2g56Z8MDJrGkUEiI4hBQlVnedfl3CUPkZZoQKwmCVFhuWOkFeTHJCkeEIOkXABOzbwEOETXIIfCtbeQVAPK5Is1JK20iAgyCMzObkkyHdJcsp+tmjvrogBpF2ev7ZmrYinj857KpUqhOEAMEqqq810nvVN1SjJFAjIsyA455jP6wG8uqt4otot1Shn24FWgqTIPKzlq7Iuq6AiyvxA7nsJMwPjXFR81qgTEahMJgJRZiFdbg4wtzKIJOyxVRY1qI8j+wqwdzAJJ0FvfWWaS6EuqqUHG5NMX8f6dc/5tIhmqvG0tRfiU8qoHZBCAdbumTCH073613Cyvnq2+dj9/UPtHDSCDIvszXZt3P3/n4rJ25WLXpwuMQXbqABkW3m8yujcGymmM2lTqbLv4qCViHEpDLSD7qZf9JNsTSKovvkOjq3pAHtUoi82l8qhiYByQY4AccSV7na+2TrkI9TaFjjMoTijOAJmw6of9FH9ZUb1iUAR6MwMkUFDtsC6ylJmGrX/uA629b1bPb79dz1iy+qEGCNEEWljaS3tgFn86t70QFGG6CNE4/8/57fcb4hLtMknv5q1BGyPQtCClqGN2G3V9ZOjkt1h8ef731/7f9oFIwCIIRIzTNxnguTtzF8120wPTRR7nvPeTu9JtNPCL5frszq217klMSxk/wgDBy9TuWJEEDJCKlGlLwUvAAMHL1O5YkQQMkIqUaUvBS8AAwcvU7liRBAyQipRpS8FLwADBy9TuWJEEDJCKlGlLwUvAAMHL1O5YkQQMkIqUaUvBS8AAwcvU7liRBAyQipRpS8FL4P+j4Ylf5zKEYgAAAABJRU5ErkJggg==;" parent="1" vertex="1">
          <mxGeometry x="361" y="121" width="40" height="40" as="geometry" />
        </mxCell>
        <mxCell id="a9we4a085A3KK1icnXQR-23" style="edgeStyle=orthogonalEdgeStyle;rounded=0;orthogonalLoop=1;jettySize=auto;html=1;entryX=0;entryY=0.5;entryDx=0;entryDy=0;" parent="1" source="a9we4a085A3KK1icnXQR-5" target="a9we4a085A3KK1icnXQR-12" edge="1">
          <mxGeometry relative="1" as="geometry" />
        </mxCell>
        <mxCell id="a9we4a085A3KK1icnXQR-5" value="检索单元" style="rounded=1;whiteSpace=wrap;html=1;fillColor=#dae8fc;strokeColor=#6c8ebf;" parent="1" vertex="1">
          <mxGeometry x="490" y="50" width="120" height="40" as="geometry" />
        </mxCell>
        <mxCell id="a9we4a085A3KK1icnXQR-24" style="edgeStyle=orthogonalEdgeStyle;rounded=0;orthogonalLoop=1;jettySize=auto;html=1;entryX=0;entryY=0.5;entryDx=0;entryDy=0;" parent="1" source="a9we4a085A3KK1icnXQR-6" target="a9we4a085A3KK1icnXQR-12" edge="1">
          <mxGeometry relative="1" as="geometry" />
        </mxCell>
        <mxCell id="a9we4a085A3KK1icnXQR-6" value="检索范围" style="rounded=1;whiteSpace=wrap;html=1;fillColor=#dae8fc;strokeColor=#6c8ebf;" parent="1" vertex="1">
          <mxGeometry x="490" y="130" width="120" height="40" as="geometry" />
        </mxCell>
        <mxCell id="a9we4a085A3KK1icnXQR-26" style="edgeStyle=orthogonalEdgeStyle;rounded=0;orthogonalLoop=1;jettySize=auto;html=1;entryX=0;entryY=0.5;entryDx=0;entryDy=0;" parent="1" source="a9we4a085A3KK1icnXQR-7" target="a9we4a085A3KK1icnXQR-15" edge="1">
          <mxGeometry relative="1" as="geometry" />
        </mxCell>
        <mxCell id="a9we4a085A3KK1icnXQR-7" value="约束条件" style="rounded=1;whiteSpace=wrap;html=1;fillColor=#F8DADA;strokeColor=#b85450;" parent="1" vertex="1">
          <mxGeometry x="490" y="210" width="120" height="40" as="geometry" />
        </mxCell>
        <mxCell id="a9we4a085A3KK1icnXQR-28" style="edgeStyle=orthogonalEdgeStyle;rounded=0;orthogonalLoop=1;jettySize=auto;html=1;entryX=0.5;entryY=0;entryDx=0;entryDy=0;" parent="1" source="a9we4a085A3KK1icnXQR-12" target="a9we4a085A3KK1icnXQR-15" edge="1">
          <mxGeometry relative="1" as="geometry" />
        </mxCell>
        <mxCell id="a9we4a085A3KK1icnXQR-12" value="&lt;div&gt;&lt;font style=&quot;font-size: 40px;&quot;&gt;📰&lt;/font&gt;&lt;/div&gt;&lt;div&gt;&lt;br&gt;&lt;/div&gt;语料库" style="rounded=1;whiteSpace=wrap;html=1;strokeWidth=2;fillColor=#d5e8d4;strokeColor=#5B7D47;" parent="1" vertex="1">
          <mxGeometry x="649" y="40" width="120" height="140" as="geometry" />
        </mxCell>
        <mxCell id="a9we4a085A3KK1icnXQR-29" style="edgeStyle=orthogonalEdgeStyle;rounded=0;orthogonalLoop=1;jettySize=auto;html=1;" parent="1" source="a9we4a085A3KK1icnXQR-15" edge="1">
          <mxGeometry relative="1" as="geometry">
            <mxPoint x="709" y="280" as="targetPoint" />
          </mxGeometry>
        </mxCell>
        <mxCell id="a9we4a085A3KK1icnXQR-15" value="过滤" style="rounded=0;whiteSpace=wrap;html=1;strokeWidth=2;fillColor=#fff2cc;strokeColor=#d6b656;" parent="1" vertex="1">
          <mxGeometry x="649" y="210" width="120" height="40" as="geometry" />
        </mxCell>
        <mxCell id="a9we4a085A3KK1icnXQR-30" value="❓️ CQL 查询" style="swimlane;whiteSpace=wrap;html=1;fillColor=#f5f5f5;fontColor=#333333;strokeColor=#666666;" parent="1" vertex="1">
          <mxGeometry x="80" y="120" width="200" height="60" as="geometry" />
        </mxCell>
        <mxCell id="a9we4a085A3KK1icnXQR-31" value="📃 查询结果" style="swimlane;whiteSpace=wrap;html=1;fillColor=#f5f5f5;strokeColor=#666666;fontColor=#333333;" parent="1" vertex="1">
          <mxGeometry x="609" y="280" width="200" height="80" as="geometry" />
        </mxCell>
        <mxCell id="a9we4a085A3KK1icnXQR-32" style="edgeStyle=orthogonalEdgeStyle;rounded=0;orthogonalLoop=1;jettySize=auto;html=1;entryX=0;entryY=0.5;entryDx=0;entryDy=0;" parent="1" target="a9we4a085A3KK1icnXQR-36" edge="1">
          <mxGeometry relative="1" as="geometry">
            <mxPoint x="280" y="530" as="sourcePoint" />
          </mxGeometry>
        </mxCell>
        <mxCell id="a9we4a085A3KK1icnXQR-33" style="rounded=0;orthogonalLoop=1;jettySize=auto;html=1;entryX=0;entryY=0.5;entryDx=0;entryDy=0;exitX=1;exitY=0.5;exitDx=0;exitDy=0;" parent="1" source="a9we4a085A3KK1icnXQR-36" target="a9we4a085A3KK1icnXQR-39" edge="1">
          <mxGeometry relative="1" as="geometry" />
        </mxCell>
        <mxCell id="a9we4a085A3KK1icnXQR-34" style="edgeStyle=orthogonalEdgeStyle;rounded=0;orthogonalLoop=1;jettySize=auto;html=1;entryX=0;entryY=0.5;entryDx=0;entryDy=0;" parent="1" source="a9we4a085A3KK1icnXQR-36" target="a9we4a085A3KK1icnXQR-41" edge="1">
          <mxGeometry relative="1" as="geometry" />
        </mxCell>
        <mxCell id="a9we4a085A3KK1icnXQR-35" style="rounded=0;orthogonalLoop=1;jettySize=auto;html=1;entryX=0;entryY=0.5;entryDx=0;entryDy=0;exitX=1;exitY=0.5;exitDx=0;exitDy=0;" parent="1" source="a9we4a085A3KK1icnXQR-36" target="a9we4a085A3KK1icnXQR-43" edge="1">
          <mxGeometry relative="1" as="geometry" />
        </mxCell>
        <mxCell id="a9we4a085A3KK1icnXQR-36" value="&lt;div&gt;&lt;br&gt;&lt;/div&gt;&lt;div&gt;&lt;br&gt;&lt;/div&gt;&lt;div&gt;&lt;br&gt;&lt;/div&gt;ANTLR&amp;nbsp;&lt;span style=&quot;background-color: initial;&quot;&gt;解析器&lt;/span&gt;" style="rounded=1;whiteSpace=wrap;html=1;strokeWidth=2;" parent="1" vertex="1">
          <mxGeometry x="320" y="490" width="120" height="80" as="geometry" />
        </mxCell>
        <mxCell id="a9we4a085A3KK1icnXQR-37" value="" style="shape=image;verticalLabelPosition=bottom;labelBackgroundColor=default;verticalAlign=top;aspect=fixed;imageAspect=0;image=data:image/png,iVBORw0KGgoAAAANSUhEUgAAAMgAAADICAYAAACtWK6eAAAAAXNSR0IArs4c6QAAD/lJREFUeF7tnV9227YSh0HJLznHWUPdRTTtW52k+0i8ksQribOPxlHecpNFXHUNzTn3xRJuSIq2LIsiOPhhMMCMXpoegxQwM9/8A0g1zj4mAZPAqAQak41JwCQwLgEDxKzDJHBCAgaImYdJwAAxGzAJ0CRgEYQmN7tKiQQMECWKtmXSJGCA0ORmVymRgAGiRNG2TJoEDBCa3OwqJRIwQJQo2pZJk4ABQpObXaVEAgYIk6L/d/nHRftVd2fuotluLrxrfjn86qZpujHDx3u/bv/dOP9P+1+/WHb/f3bn1s9WX7t/2yetBAwQsHxbEO4W2zedYTf+sr99s/sv9Mt2gDSr7q5++6UF6PnfX/v/tw9EAgZIhBg7GM7chdtu/+xhSAICZYbrn3NZGTQU0T2+xgCZIcPH0cG9n3Fp7qEGDFEDBsiE4AYohEUIorrvL1t7727cYvHFUrLTojRAjsjnAYq2aPZvY61R+PUdLGfbxUcr/J9qygDZk8m/f/1x2Xj/RgEUI8z6lfPu4/nt9xvhULNNTz0gD9GiqJoitYFYVNlJWC0gBkYQY11xv9w011rTL3WAGBhBYBwO6kDxTfNRW1GvBhADgwTGkYv8arlZXmmJKNUDYmCgwHh0n65GeX777TrJ3QXdtGpA/n314l3TWPGd0N6qB6VKQNqosVluPgg6+pHQRkXceu2bxVWN9Ul1gFjUyAeM9+59bRuO1QBiUSMfGAffXFU0qQIQixpi4BgmUk1tUjQgfdTYfnbOPXrQSJy56J3QerlZvCy5JVwsIP25qQ4O+8iWQNHRpEhAfrz67a1rmg+y7cJmty+BtoAvcd+kOEB+vP79g97TtsVDtz7/9O3XklZRDCDWpSrJrE7Otai6pAhArBivBo77Llcpxbt4QKwYrw6Oh1ZwAbvvogExOKqFo5j9ErGAGBzVw1EEJCIBUQRHt0fQvjlxeOnb/hsYBb5vKxW1YvdKxAGiBI5ZBtE3Kfy7ytvbIs9wiQJk1636byo3JeO+fnX+6ftLylwUyEccJGIAUaB857y/in2ljoJTBKL2SUQAomETEHnUQsHpZTGQZAdEAxzO0dOqY6mYDpk5EcdSsgPy4/Vvn2t/NHa5WfyKPvKt43RBc3P+6T9XlHoNdU1WQBSkCpC6Y0zZGjp+yNSUAk02QDQot1XI+advyWSsJdXK+UKIZMqbovXH6xdtO7fyJwHTpwgKulqtKWUr2rMAoqHuaLWaovY4dDw6apF21dhGx5QDH/7ODogSj9f+LiFbgalFpjnqEVZAtNQdnb9rFi+5XqSmYpO1d+nsO+2sgGhJrXKkA4oeRWbdH2EDRJECWaPHkCsriiKOM9ViAURTatWmAbleTKAnQvN1tVgAUaS4pBuDU50XXY6Ip6uVHBAtHZbBeFNuDE4B0v5dkzPiaISkB0TFhmBvupy5sebjJ3trT57OJgXEokeIz8eOUXL8ZE9oafeb0gLy+oXHql/y3dIqas7KlTmmpFEkGSCa2rpcx0pCIdHU8u1lks45JQHEFBRqyunGKXNQyaJIEkA0dVK4j5WEImVOKlRSp8fBAdGnGGw/vpUf6ulDZY4qSRSBA6IstEOPlfTFtXtDfS3QoS/U56zwtUgCQDR1rrDHSoaHyJAbYBZF4lItKCDK2ovQYyWPZYfzhLqOn+AfM8AComjXvPVLyGMlPx7vGUHzaV1RBFsTwgDRFj2Qx0qO1m2AtzAOyYU63QAfVsMBouy3A1HPm58opGFRRM9z64NLwKWoQEA0Fec4BZzq+kGLdV2/DAxzLhBAtIVwVPToj6efciw4ELW1fFHOBQOIgteHPjQLcUYb4Fig74PStUeFKdZBgOhJr1CeaRc9Jl+eh2wGKIsikDQrGpAALxi3UyPqaoxX6uAIrwkgir7vaClqpiCcWTwgmtIrZOt1hqEiFD0AoiuKxKfDAEDUpFdgTz5HbrjI1ad29f/kxM4hROssCpAZaYKoRIk0GWD0oPzsAzKKaDp+Eiu3OEBmpAkkoxR0EfhYyWRx/nTp8enC/j21RJHYJkckIBp+wgD7SGdE1I1OF/YB0RNF4tLTWEBUvJQBuzEYkf8D0zxFbz+JcixkQCI8oaDEKWQquNQG4LWjlH24Wi06jKlD6IAoqT+w0eP3D875tyFYjo2JUbbaJw4jIm8EIBrqD1z0mD53FYpNXE59+C2UjlroTOWMo+sxBpDq6w+ktwYaIvRHZJRsHJJTUxIggFxajnMZnQnWU2N/tJTuEY8tV0HLlxcQFcVdRN7KUAyTFX4MEA1RhJoNkCKIhmPT2I3BiNbuaLXur85vv9+gQnHtUYS6YWiAHLMwYPRImI5Co0jCeaIYjrwPLWUmAlJ3BwsbPeJbu3wt380H55rLSEsUerkBAlIMugCec2p37hJoSh/7lsprS1LEpUaQalu8yI1BYGt3zKat5RvuU3gAqTtXhUcPwqndcI33I7FzZoB67gJh4ymp8+wIUnMYprYCj+4thD9SG2sAJM849qU1t3wp2YEBcm8pWE+M3RicYAjYdWu/qdY2PsUBGiA726MIT1CxC40itabRFB3PBqTOHBXcDcrwzDdF+afiUo0bh5TNQgOktRJgipLP+4Ih56uhYmuw4OtZAKkxP6V0N0bTqwzRYzcXa/lOojK/zpwdQeoDZL7Q5HaAcGupsVi3CDLpQZ4OoLT+xqNHumMlgUuDvsu3tpavARJoRQ/D0B435bGS0MWh15TgJHLoUsDjDJC5AkUW569evGsa937uFBKMh0aRfE0HvGQMkJkyxRbnkk4446JITWmWATILEJwRCTx+g40icqLjLA0fDmYBpJaNQuTGGuuxkmATwTmAWqKIARJsPLhNNYHRY5AC9PhJDTvrLIAINohgPJA755INh2IQY0KsolgnNGVmbxTWIChUcV6ALGBRpIp3+Rog00EE6VVLOFUArbUKP59F2RSeHUFKL9goQhrfOZewMTjlFHD1lkbdKwME19kpIXoMhxiXm8XLZ6uv6ymUQv5e0LqfLIeSWs8GpD/EVoLnfKpuaLpRkAyQaWXBUYRUjxEBKfF8Di7VKLCTRzKO8dSyRP3TsgciINlPrYZkA4/GgKMHw9tKZi/x5AXI9RfQvTsiC0ZACtxNh3nQAqPHzlhwEbRPs8uKItQ0kxRBivMghP53fHrRwF4sjYgl3vv189tv14h7tffQYgMkQEor1Cjdi2OGNNMooI/AogwbdZ/SNg6p7X0SILtOVhl5eJbocW+Ga+/dzdl28RHVZkUZOOI+JaWbVCcZAUgZOShVMIcGFBk1O1CQKQ7CwGPvsZPJZ+fcRey90l5PK9DbOZEBKaNQpwvmUGGgDbK18/4a+cM3aQ1r+u5FRJGILIIOyF9/XDZ+23oPsR9q3nlsQeDNUegDTTkVEBlZWaYeYwdkQOQLBhg90hzSq6Y+kR5FYtJsMiDSe+ExXuNpepX0efPi6xPZzjLOUUYBIrcOiRPKPiCM3rHo+gRUo8FTLuoG4TCRKECkeg7ksYoMO8ZF1ie12kIUIDLTLNyRioxKLzLtyuBMJiNOTP0R1eYdZiYttGKjR/ZDmUWBktGhjIASn2pHR5CZxy8miY8bgIseu9MCUn6stJj6RFIUQTjLaEBEeY2IDaEnnas0rd04/p1fLTfLK8nHViQ5zNj0CpJiSapDEAJ5SB3FHqURn3bJiCLx6RUMEBFeAxg9RKxnOtaIBYWxNT4qJdQ+WHSKJcXjYqNH9uJ8Go+HEeLqEwFpN+wBORwgWXN2TDh9gL3Il1KIev4ka3cTmE3AAMnpNVDhtAVE7umA0KDS3Cw3zXXuQj5nmoq0Bxgg+Yp1ePQo40Gw07yIqE/yFOtYe4ACksVrAMOphOIyNE4EjssKSg55IvY+9mULBSRHFEGG0zweL9DU44ZlKeT5027sRjGszbuvO26vgepeZYl+cUZPuZq9kAc/aHZyzejokQQQ5rddwNp5WbsuFFOnX7N2rllxFfJ8gOCjRxJAuk4Q4+O4qAjCp0i6ZYOvZKlPuOSaInokA4SzFkEIhjstBBt67O2SgcIn1zTRIykgfFEkvq3H5eViLTnx9fBCnqvpgXCSY7KFd7EeFew872+NegJPUe0RyleUPIcv4XOQ6aJH0gjCXIuQinU+JYbapphxUW9c4WzvpoweyQHhrEWcm+dJDI4gGGfXJ7xvW4xPr6ekkDTFar+c05s45yb7/O187hbbN03j3k8Jx/5+L4EgUJjPsZGyhrk6TQ5IF0X4T/p2CnWLxZezO7e+O3MXzXZz4V3zi4Ex10Qeje/2UJzffvGLZfebh7nkmjq1GlbNAghvqhVlAHZxERKYl07HLIkNEOZUK0Ymdq1wCSDP300tlQ2QTKnW1Prt76VJAHh6O2TprIBYqhWiEhszLgG+1Iq9Bhm+0FItA4AqAc7UKhsglmpRzUP3dVxdq0Mps6dYwwSYe+a6ravw1ce+oT1m+dkAYX5uJEZGdm1WCfDXHfvLzQZIOwneYwlZtWxfTpMAy275qallBWQPkvZNIvYxCTySQK66Q0wEGSaS4SiKmaJwCUiAoxVR9ghiRbtwS80wPSlwiAKknYx1tjJYo7CvlASHOEAMEmHWyj0d5mMkIcsTk2LtT9YiSYjqKhsjEA6REcRqksoMP2g56Z8MDJrGkUEiI4hBQlVnedfl3CUPkZZoQKwmCVFhuWOkFeTHJCkeEIOkXABOzbwEOETXIIfCtbeQVAPK5Is1JK20iAgyCMzObkkyHdJcsp+tmjvrogBpF2ev7ZmrYinj857KpUqhOEAMEqqq810nvVN1SjJFAjIsyA455jP6wG8uqt4otot1Shn24FWgqTIPKzlq7Iuq6AiyvxA7nsJMwPjXFR81qgTEahMJgJRZiFdbg4wtzKIJOyxVRY1qI8j+wqwdzAJJ0FvfWWaS6EuqqUHG5NMX8f6dc/5tIhmqvG0tRfiU8qoHZBCAdbumTCH073613Cyvnq2+dj9/UPtHDSCDIvszXZt3P3/n4rJ25WLXpwuMQXbqABkW3m8yujcGymmM2lTqbLv4qCViHEpDLSD7qZf9JNsTSKovvkOjq3pAHtUoi82l8qhiYByQY4AccSV7na+2TrkI9TaFjjMoTijOAJmw6of9FH9ZUb1iUAR6MwMkUFDtsC6ylJmGrX/uA629b1bPb79dz1iy+qEGCNEEWljaS3tgFn86t70QFGG6CNE4/8/57fcb4hLtMknv5q1BGyPQtCClqGN2G3V9ZOjkt1h8ef731/7f9oFIwCIIRIzTNxnguTtzF8120wPTRR7nvPeTu9JtNPCL5frszq217klMSxk/wgDBy9TuWJEEDJCKlGlLwUvAAMHL1O5YkQQMkIqUaUvBS8AAwcvU7liRBAyQipRpS8FLwADBy9TuWJEEDJCKlGlLwUvAAMHL1O5YkQQMkIqUaUvBS8AAwcvU7liRBAyQipRpS8FL4P+j4Ylf5zKEYgAAAABJRU5ErkJggg==;" parent="1" vertex="1">
          <mxGeometry x="361" y="501" width="40" height="40" as="geometry" />
        </mxCell>
        <mxCell id="a9we4a085A3KK1icnXQR-38" style="edgeStyle=orthogonalEdgeStyle;rounded=0;orthogonalLoop=1;jettySize=auto;html=1;entryX=0;entryY=0.5;entryDx=0;entryDy=0;" parent="1" source="a9we4a085A3KK1icnXQR-39" target="a9we4a085A3KK1icnXQR-45" edge="1">
          <mxGeometry relative="1" as="geometry" />
        </mxCell>
        <mxCell id="a9we4a085A3KK1icnXQR-39" value="检索单元" style="rounded=1;whiteSpace=wrap;html=1;fillColor=#dae8fc;strokeColor=#6c8ebf;" parent="1" vertex="1">
          <mxGeometry x="490" y="430" width="120" height="40" as="geometry" />
        </mxCell>
        <mxCell id="a9we4a085A3KK1icnXQR-40" style="edgeStyle=orthogonalEdgeStyle;rounded=0;orthogonalLoop=1;jettySize=auto;html=1;entryX=0;entryY=0.5;entryDx=0;entryDy=0;" parent="1" source="a9we4a085A3KK1icnXQR-41" target="a9we4a085A3KK1icnXQR-45" edge="1">
          <mxGeometry relative="1" as="geometry" />
        </mxCell>
        <mxCell id="a9we4a085A3KK1icnXQR-41" value="检索范围" style="rounded=1;whiteSpace=wrap;html=1;fillColor=#dae8fc;strokeColor=#6c8ebf;" parent="1" vertex="1">
          <mxGeometry x="490" y="510" width="120" height="40" as="geometry" />
        </mxCell>
        <mxCell id="a9we4a085A3KK1icnXQR-42" style="edgeStyle=orthogonalEdgeStyle;rounded=0;orthogonalLoop=1;jettySize=auto;html=1;entryX=0;entryY=0.5;entryDx=0;entryDy=0;" parent="1" source="a9we4a085A3KK1icnXQR-43" target="a9we4a085A3KK1icnXQR-47" edge="1">
          <mxGeometry relative="1" as="geometry" />
        </mxCell>
        <mxCell id="a9we4a085A3KK1icnXQR-43" value="约束条件" style="rounded=1;whiteSpace=wrap;html=1;fillColor=#F8DADA;strokeColor=#b85450;" parent="1" vertex="1">
          <mxGeometry x="490" y="590" width="120" height="40" as="geometry" />
        </mxCell>
        <mxCell id="a9we4a085A3KK1icnXQR-44" style="edgeStyle=orthogonalEdgeStyle;rounded=0;orthogonalLoop=1;jettySize=auto;html=1;entryX=0.5;entryY=0;entryDx=0;entryDy=0;" parent="1" source="a9we4a085A3KK1icnXQR-45" target="a9we4a085A3KK1icnXQR-47" edge="1">
          <mxGeometry relative="1" as="geometry" />
        </mxCell>
        <mxCell id="a9we4a085A3KK1icnXQR-45" value="&lt;div&gt;&lt;font style=&quot;font-size: 40px;&quot;&gt;📰&lt;/font&gt;&lt;/div&gt;&lt;div&gt;&lt;br&gt;&lt;/div&gt;语料库" style="rounded=1;whiteSpace=wrap;html=1;strokeWidth=2;fillColor=#d5e8d4;strokeColor=#5B7D47;" parent="1" vertex="1">
          <mxGeometry x="649" y="420" width="120" height="140" as="geometry" />
        </mxCell>
        <mxCell id="IdJRExplNREmoRe3S82U-1" style="edgeStyle=orthogonalEdgeStyle;rounded=0;orthogonalLoop=1;jettySize=auto;html=1;entryX=0;entryY=0.5;entryDx=0;entryDy=0;" edge="1" parent="1" source="a9we4a085A3KK1icnXQR-47" target="a9we4a085A3KK1icnXQR-49">
          <mxGeometry relative="1" as="geometry" />
        </mxCell>
        <mxCell id="a9we4a085A3KK1icnXQR-47" value="过滤" style="rounded=0;whiteSpace=wrap;html=1;strokeWidth=2;fillColor=#fff2cc;strokeColor=#d6b656;" parent="1" vertex="1">
          <mxGeometry x="649" y="590" width="120" height="40" as="geometry" />
        </mxCell>
        <mxCell id="a9we4a085A3KK1icnXQR-48" value="❓️ CQL 查询" style="swimlane;whiteSpace=wrap;html=1;fillColor=#f5f5f5;fontColor=#333333;strokeColor=#666666;" parent="1" vertex="1">
          <mxGeometry x="80" y="500" width="200" height="60" as="geometry" />
        </mxCell>
        <mxCell id="a9we4a085A3KK1icnXQR-49" value="📃 查询结果" style="swimlane;whiteSpace=wrap;html=1;fillColor=#f5f5f5;strokeColor=#666666;fontColor=#333333;" parent="1" vertex="1">
          <mxGeometry x="820" y="570" width="200" height="80" as="geometry" />
        </mxCell>
      </root>
    </mxGraphModel>
  </diagram>
</mxfile>
